<?xml version="1.0" encoding="UTF-8" standalone="no"?> <svg id="icon" xmlns="http://www.w3.org/2000/svg" viewBox="0 0 512 512"><defs><style>.cls-1{fill:#ff9393;}.cls-2{fill:#e06666;}.cls-3{fill:#8d8d8d;}.cls-4{fill:#fff;}.cls-5{fill:#5a5a5a;}.cls-6{fill:#ffd2d2;}.cls-7{fill:#a6e5ff;}.cls-8{fill:#65b9e3;}.cls-9{fill:#ebffff;}.cls-10{fill:#333;}</style></defs><title>car a</title><path class="cls-1" d="M473,231H411.2L357,172.63a44.72,44.72,0,0,0-32.77-14.29H250.75a44.76,44.76,0,0,0-28.7,10.43L147.78,231H39a13.34,13.34,0,0,0-12.87,16.82l14.2,52.53a23.75,23.75,0,0,0,22.92,17.55H447.07A23.75,23.75,0,0,0,469.8,301l15.95-52.82A13.33,13.33,0,0,0,473,231Z"/><path class="cls-2" d="M430.07,231,438,219.91a28.13,28.13,0,0,1,22.87-11.76h12.63a5.87,5.87,0,0,1,4.82,9.22L468.84,231Z"/><path class="cls-2" d="M473,231h-15.8l-8.82,29.58a43.81,43.81,0,0,1-42,31.3H38.05l2.29,8.47a23.75,23.75,0,0,0,22.92,17.55H447.07A23.75,23.75,0,0,0,469.8,301l15.95-52.82A13.33,13.33,0,0,0,473,231Z"/><polygon class="cls-2" points="148.98 229.95 410.26 229.95 394.02 212.46 169.87 212.46 148.98 229.95"/><rect class="cls-2" x="322.27" y="231.14" width="16.92" height="68.97"/><rect class="cls-2" x="180.02" y="231.14" width="16.92" height="68.97"/><circle class="cls-3" cx="111.67" cy="310.68" r="42.98"/><circle class="cls-4" cx="111.67" cy="310.68" r="18.83"/><path class="cls-5" d="M107.61,348.53c0,1.67.09,3.32.25,5,1.26.11,2.53.18,3.81.18a43,43,0,0,0,41-55.94A51.2,51.2,0,0,0,107.61,348.53Z"/><circle class="cls-4" cx="111.67" cy="310.68" r="18.83"/><circle class="cls-3" cx="396.05" cy="310.68" r="42.98"/><circle class="cls-4" cx="396.05" cy="310.68" r="18.83"/><path class="cls-5" d="M390.05,348.53c0,1.6.09,3.17.23,4.73a43.91,43.91,0,0,0,5.77.4A43,43,0,0,0,437,297.53,51.19,51.19,0,0,0,390.05,348.53Z"/><circle class="cls-4" cx="396.05" cy="310.68" r="18.83"/><path class="cls-6" d="M115.71,232.05l.44-1.09H39a13.34,13.34,0,0,0-12.87,16.82l1.16,4.31H86A32,32,0,0,0,115.71,232.05Z"/><path class="cls-6" d="M211.69,231.14h60.15a0,0,0,0,1,0,0V237a15,15,0,0,1-15,15H226.73a15,15,0,0,1-15-15v-5.91A0,0,0,0,1,211.69,231.14Z"/><path class="cls-6" d="M350.44,231.14h60.15a0,0,0,0,1,0,0V237a15,15,0,0,1-15,15H365.47a15,15,0,0,1-15-15v-5.91A0,0,0,0,1,350.44,231.14Z"/><path class="cls-6" d="M222.05,168.77l-12.48,10.45a37.73,37.73,0,0,0,71.86-16.06,38.38,38.38,0,0,0-.32-4.82H250.75A44.76,44.76,0,0,0,222.05,168.77Z"/><path class="cls-7" d="M191.61,231l50.83-42.81a24.61,24.61,0,0,1,15.82-5.77H319.5a24.55,24.55,0,0,1,17.93,7.78L352.23,206a14.84,14.84,0,0,1-10.83,25Z"/><path class="cls-8" d="M355.44,211.24h0a14.84,14.84,0,0,0-3.21-5.25l-14.8-15.82a24.53,24.53,0,0,0-15.16-7.61,25.61,25.61,0,0,1-25.61,25.6H278.81A22.81,22.81,0,0,0,256,231h85.4a14.82,14.82,0,0,0,6.91-1.67l.16-.09a14.44,14.44,0,0,0,2.54-1.74l.13-.11a15.11,15.11,0,0,0,2.07-2.24l.09-.12a15.76,15.76,0,0,0,1.57-2.66l0-.06c.21-.48.4-1,.57-1.46l.12-.38a12.84,12.84,0,0,0,.57-2.74l0-.22a14.71,14.71,0,0,0,0-3A14.43,14.43,0,0,0,355.44,211.24Z"/><path class="cls-9" d="M258.26,182.38a24.61,24.61,0,0,0-15.82,5.77l-12.18,10.26a37.74,37.74,0,0,0,45.9-16Z"/><path class="cls-10" d="M111.67,335.39A24.75,24.75,0,0,1,88.4,319,5.88,5.88,0,0,1,99.47,315,13,13,0,1,0,114.24,298a5.88,5.88,0,0,1,2.32-11.52,24.71,24.71,0,0,1-4.89,48.94Z"/><path class="cls-10" d="M96.67,305.16A5.88,5.88,0,0,1,92,295.71c.25-.33.52-.66.79-1a5.88,5.88,0,0,1,9,7.58c-.15.18-.3.36-.44.55A5.89,5.89,0,0,1,96.67,305.16Z"/><path class="cls-10" d="M111.67,359.53a48.86,48.86,0,1,1,48.86-48.85A48.91,48.91,0,0,1,111.67,359.53Zm0-86a37.11,37.11,0,1,0,37.11,37.11A37.15,37.15,0,0,0,111.67,273.57Z"/><path class="cls-10" d="M396.05,359.53a48.86,48.86,0,1,1,48.86-48.85A48.9,48.9,0,0,1,396.05,359.53Zm0-86a37.11,37.11,0,1,0,37.11,37.11A37.15,37.15,0,0,0,396.05,273.57Z"/><path class="cls-10" d="M395.51,335.39A24.77,24.77,0,0,1,372.23,319,5.88,5.88,0,0,1,383.3,315,13,13,0,1,0,398.08,298a5.87,5.87,0,1,1,2.31-11.52,24.71,24.71,0,0,1-4.88,48.94Z"/><path class="cls-10" d="M380.51,305.16a5.88,5.88,0,0,1-4.67-9.45l.79-1a5.88,5.88,0,0,1,9,7.58c-.15.18-.3.36-.44.55A5.87,5.87,0,0,1,380.51,305.16Z"/><path class="cls-10" d="M357.41,286H342a5.88,5.88,0,1,0,0,11.75h15.41a5.88,5.88,0,1,0,0-11.75Z"/><path class="cls-10" d="M68.58,246.21H55.91a5.88,5.88,0,1,0,0,11.75H68.58a5.88,5.88,0,0,0,0-11.75Z"/><path class="cls-10" d="M300.1,258a5.88,5.88,0,1,0,0-11.75H287.44a5.88,5.88,0,1,0,0,11.75Z"/><path class="cls-10" d="M488.41,232.84A19.05,19.05,0,0,0,473,225.08H441.51l1.25-1.75a22.3,22.3,0,0,1,18.09-9.3h12.06a5.88,5.88,0,0,0,11.32,2.67l2.53-6.38a5.88,5.88,0,0,0-5.47-8H460.85a34,34,0,0,0-27.64,14.21l-6.16,8.59H413.76l-52.42-56.45a50.75,50.75,0,0,0-37.07-16.16H250.75a50.66,50.66,0,0,0-32.47,11.8l-72.64,60.81H88.84l5.34-6.34a5.88,5.88,0,0,0-9-7.58L73.47,225.08H39a19.22,19.22,0,0,0-18.54,24.23l14.19,52.53a29.69,29.69,0,0,0,28.6,21.89,5.88,5.88,0,1,0,0-11.75A17.9,17.9,0,0,1,46,298.77l-.28-1h7.15a5.88,5.88,0,1,0,0-11.75H42.55L31.81,246.25a7.46,7.46,0,0,1,7.2-9.41H174.14V286H150.31a5.88,5.88,0,0,0,0,11.75h23.83v2.39a5.88,5.88,0,0,0,11.75,0V236.84h130.5V286H202a5.88,5.88,0,1,0,0,11.75H316.39v2.39a5.88,5.88,0,0,0,11.75,0V236.84H473a7.46,7.46,0,0,1,7.14,9.62L468.19,286h-10.8a5.88,5.88,0,1,0,0,11.75h7.25l-.47,1.56a17.91,17.91,0,0,1-9.33,10.92A5.88,5.88,0,0,0,460,320.78a29.68,29.68,0,0,0,15.46-18.11l16-52.82A19.06,19.06,0,0,0,488.41,232.84ZM225.82,173.28a38.91,38.91,0,0,1,24.93-9.06h73.52a38.93,38.93,0,0,1,28.46,12.41l45,48.45H360.06c.11-.24.23-.47.34-.72a20.44,20.44,0,0,0-3.88-22.4l-14.8-15.82a30.55,30.55,0,0,0-18.19-9.33l-.28,0a29.28,29.28,0,0,0-3.75-.26H258.26a30.49,30.49,0,0,0-19.6,7.15l-25.87,21.78a5.88,5.88,0,0,0,7.57,9l25.87-21.78a18.7,18.7,0,0,1,12-4.39h58.13v24.2a5.88,5.88,0,1,0,11.75,0V190.41a18.66,18.66,0,0,1,5,3.76L347.94,210a9,9,0,0,1-6.54,15.09H164Z"/><path class="cls-10" d="M353.07,312H171.62a5.88,5.88,0,1,0,0,11.75H353.07a5.88,5.88,0,1,0,0-11.75Z"/></svg>