<?xml version="1.0" encoding="UTF-8" standalone="no"?> <svg xmlns="http://www.w3.org/2000/svg" viewBox="0 0 64 64"><title>police car</title><g id="_30-police_car" data-name="30-police car"><polygon points="63 32 63 41 2 41 3.17 34 3.67 31 4 29 19 25 25 16 43 16 52 25 61 25 61 32 63 32" style="fill:#53575b"/><rect x="19" y="25" width="33" height="16" style="fill:#dbdbdb"/><polygon points="40 16 34 16 34 13 39 13 40 16" style="fill:#6363ff"/><polygon points="38 14 38.667 16 40 16 39 13 34 13 34 14 38 14" style="fill:#5454fc"/><polygon points="34 16 28 16 29 13 34 13 34 16" style="fill:#f98459"/><polygon points="30 14 34 14 34 13 29 13 28 16 29.333 16 30 14" style="fill:#ef7752"/><polygon points="33 19 33 25 23 25 27 19 33 19" style="fill:#c7e6e8"/><polygon points="30.29 19 26 25 25 25 29.29 19 30.29 19" style="fill:#e9f5f6"/><polygon points="33 19 33 20.8 30 25 28 25 32.29 19 33 19" style="fill:#e9f5f6"/><polygon points="47 25 36 25 36 19 41 19 41.17 19.17 42.33 20.33 43.5 21.5 47 25" style="fill:#c7e6e8"/><polygon points="41.17 19.17 37 25 36 25 40.29 19 41 19 41.17 19.17" style="fill:#e9f5f6"/><polygon points="43.5 21.5 41 25 39 25 42.33 20.33 43.5 21.5" style="fill:#e9f5f6"/><path d="M61,32H57.5A1.5,1.5,0,0,1,56,30.5h0A1.5,1.5,0,0,1,57.5,29H61Z" style="fill:#a87864"/><polygon points="10 31 8 34 3.17 34 3.67 31 10 31" style="fill:#a87864"/><rect x="1" y="41" width="62" height="3" style="fill:#e3dfe0"/><circle cx="15" cy="43" r="6" style="fill:#6c6c6c"/><circle cx="49" cy="43" r="6" style="fill:#6c6c6c"/><circle cx="15" cy="43" r="3" style="fill:#c9c3c3"/><circle cx="49" cy="43" r="3" style="fill:#c9c3c3"/><path d="M23,34H21V29a1,1,0,0,1,1-1h3a1,1,0,0,1,1,1v3a1,1,0,0,1-1,1H23Zm0-3h1V30H23Z" style="fill:#53575b"/><path d="M31,34H28a1,1,0,0,1-1-1V29a1,1,0,0,1,1-1h3a1,1,0,0,1,1,1v4A1,1,0,0,1,31,34Zm-2-2h1V30H29Z" style="fill:#53575b"/><path d="M37,34H34a1,1,0,0,1-1-1V28h2v4h2Z" style="fill:#53575b"/><rect x="38" y="28" width="2" height="6" style="fill:#53575b"/><path d="M45,34H42a1,1,0,0,1-1-1V29a1,1,0,0,1,1-1h3v2H43v2h2Z" style="fill:#53575b"/><path d="M50,34H47a1,1,0,0,1-.9-1.447L46.882,31l-.777-1.553A1,1,0,0,1,47,28h3v2H48.618l.277.553a1,1,0,0,1,0,.894L48.618,32H50Z" style="fill:#53575b"/><path d="M10.1,44a5,5,0,1,1,9.8,0H21.92A7,7,0,1,0,8.08,44Z" style="fill:#3d4042"/><path d="M44.1,44a5,5,0,1,1,9.8,0H55.92a7,7,0,1,0-13.84,0Z" style="fill:#3d4042"/><polygon points="6 31 3.67 31 3.17 34 6 34 6 31" style="fill:#af8272"/><path d="M59,29H57.5a1.5,1.5,0,0,0,0,3H59Z" style="fill:#af8272"/></g></svg>