<?xml version="1.0" encoding="UTF-8" standalone="no"?> <svg width="64" height="64" viewBox="0 0 64 64" fill="none" xmlns="http://www.w3.org/2000/svg">
<path d="M49 43H57V34.7C57 34.4937 56.9362 34.2924 56.8174 34.1237C56.6985 33.9551 56.5303 33.8273 56.336 33.758L43 29H13L3.8 30.839C3.57396 30.8851 3.37082 31.008 3.22502 31.1868C3.07922 31.3656 2.99972 31.5893 3 31.82V41.212C3.00011 41.4366 3.07583 41.6547 3.21497 41.831C3.35411 42.0073 3.54857 42.1317 3.767 42.184L7.167 43H49V43Z" fill="#868787"/>
<path d="M43 29V38.1C41.8706 38.3305 40.8556 38.9442 40.1267 39.8371C39.3978 40.73 38.9998 41.8473 39 43H18C18 41.6739 17.4732 40.4021 16.5355 39.4645C15.5979 38.5268 14.3261 38 13 38V29H43Z" fill="#F2F2F2"/>
<path d="M57 39H60.5C60.6326 39 60.7598 39.0527 60.8536 39.1464C60.9473 39.2402 61 39.3674 61 39.5V42.5C61 42.6326 60.9473 42.7598 60.8536 42.8536C60.7598 42.9473 60.6326 43 60.5 43H57V39Z" fill="#B3B3B3"/>
<path d="M52 35H56C56.2652 35 56.5196 35.1054 56.7071 35.2929C56.8946 35.4804 57 35.7348 57 36V39H52C51.7348 39 51.4804 38.8946 51.2929 38.7071C51.1054 38.5196 51 38.2652 51 38V36C51 35.7348 51.1054 35.4804 51.2929 35.2929C51.4804 35.1054 51.7348 35 52 35Z" fill="#DDC910"/>
<path d="M43 29H13L19.623 20.39C19.7164 20.2687 19.8363 20.1705 19.9736 20.1029C20.1109 20.0353 20.2619 20.0001 20.415 20H35.584C35.7372 19.9999 35.8884 20.035 36.0259 20.1026C36.1634 20.1703 36.2835 20.2686 36.377 20.39L43 29Z" fill="#56D3F4"/>
<path d="M29 19H27V29H29V19Z" fill="#1B89AF"/>
<path d="M49 43C48.9998 43.946 48.7312 44.8726 48.2255 45.6721C47.7197 46.4716 46.9975 47.1112 46.1427 47.5166C45.288 47.922 44.3358 48.0766 43.3966 47.9624C42.4575 47.8483 41.5701 47.47 40.8373 46.8716C40.1046 46.2732 39.5567 45.4792 39.2572 44.5819C38.9577 43.6845 38.9189 42.7206 39.1454 41.8021C39.3718 40.8835 39.8542 40.0481 40.5366 39.3928C41.2189 38.7375 42.0731 38.2892 43 38.1C43.3288 38.0311 43.6641 37.9976 44 38C45.3261 38 46.5979 38.5268 47.5355 39.4645C48.4732 40.4021 49 41.6739 49 43Z" fill="#545656"/>
<path d="M13 48C15.7614 48 18 45.7614 18 43C18 40.2386 15.7614 38 13 38C10.2386 38 8 40.2386 8 43C8 45.7614 10.2386 48 13 48Z" fill="#545656"/>
<path d="M13 44C13.5523 44 14 43.5523 14 43C14 42.4477 13.5523 42 13 42C12.4477 42 12 42.4477 12 43C12 43.5523 12.4477 44 13 44Z" fill="#F2F2F2"/>
<path d="M13 45C12.6044 45 12.2178 44.8827 11.8889 44.6629C11.56 44.4432 11.3036 44.1308 11.1522 43.7654C11.0009 43.3999 10.9613 42.9978 11.0384 42.6098C11.1156 42.2219 11.3061 41.8655 11.5858 41.5858C11.8655 41.3061 12.2219 41.1156 12.6098 41.0384C12.9978 40.9613 13.3999 41.0009 13.7654 41.1522C14.1308 41.3036 14.4432 41.56 14.6629 41.8889C14.8827 42.2178 15 42.6044 15 43C15 43.5304 14.7893 44.0391 14.4142 44.4142C14.0391 44.7893 13.5304 45 13 45Z" fill="#F2F2F2"/>
<path d="M44 44C44.5523 44 45 43.5523 45 43C45 42.4477 44.5523 42 44 42C43.4477 42 43 42.4477 43 43C43 43.5523 43.4477 44 44 44Z" fill="#F2F2F2"/>
<path d="M44 45C43.6044 45 43.2178 44.8827 42.8889 44.6629C42.56 44.4432 42.3036 44.1308 42.1522 43.7654C42.0009 43.3999 41.9613 42.9978 42.0384 42.6098C42.1156 42.2219 42.3061 41.8655 42.5858 41.5858C42.8655 41.3061 43.2219 41.1156 43.6098 41.0384C43.9978 40.9613 44.3999 41.0009 44.7654 41.1522C45.1308 41.3036 45.4432 41.56 45.6629 41.8889C45.8827 42.2178 46 42.6044 46 43C46 43.5304 45.7893 44.0391 45.4142 44.4142C45.0391 44.7893 44.5304 45 44 45Z" fill="#F2F2F2"/>
<path d="M3 34H6C6.26522 34 6.51957 34.1054 6.70711 34.2929C6.89464 34.4804 7 34.7348 7 35V37C7 37.2652 6.89464 37.5196 6.70711 37.7071C6.51957 37.8946 6.26522 38 6 38H3V34Z" fill="#B70815"/>
<path d="M62 47H2V49H62V47Z" fill="#333333"/>
<path d="M31 20H25V18C25 17.2044 25.3161 16.4413 25.8787 15.8787C26.4413 15.3161 27.2044 15 28 15V15C28.7956 15 29.5587 15.3161 30.1213 15.8787C30.6839 16.4413 31 17.2044 31 18V20Z" fill="#ED1C24"/>
<path d="M28 12C27.7348 12 27.4804 11.8946 27.2929 11.7071C27.1054 11.5196 27 11.2652 27 11V8C27 7.73478 27.1054 7.48043 27.2929 7.29289C27.4804 7.10536 27.7348 7 28 7C28.2652 7 28.5196 7.10536 28.7071 7.29289C28.8946 7.48043 29 7.73478 29 8V11C29 11.2652 28.8946 11.5196 28.7071 11.7071C28.5196 11.8946 28.2652 12 28 12Z" fill="#F7931E"/>
<path d="M32.418 13.571C32.229 13.5709 32.0439 13.5172 31.8842 13.4161C31.7245 13.3151 31.5967 13.1709 31.5156 13.0002C31.4345 12.8295 31.4034 12.6393 31.4259 12.4517C31.4485 12.264 31.5238 12.0866 31.643 11.94L33.537 9.61301C33.7063 9.41361 33.947 9.28848 34.2075 9.26448C34.468 9.24047 34.7275 9.31949 34.9304 9.48459C35.1333 9.64969 35.2635 9.88772 35.2929 10.1476C35.3224 10.4076 35.2488 10.6687 35.088 10.875L33.2 13.2C33.1058 13.3165 32.9866 13.4103 32.8512 13.4745C32.7159 13.5387 32.5678 13.5717 32.418 13.571V13.571Z" fill="#F7931E"/>
<path d="M23.313 13.5711C23.1643 13.5711 23.0176 13.538 22.8833 13.4742C22.7491 13.4103 22.6308 13.3174 22.537 13.2021L20.643 10.8751C20.4756 10.6686 20.3972 10.4041 20.4248 10.1398C20.4525 9.87543 20.584 9.63291 20.7905 9.46556C20.997 9.2982 21.2615 9.21973 21.5258 9.24739C21.7901 9.27505 22.0326 9.40659 22.2 9.61306L24.093 11.9401C24.2122 12.0867 24.2875 12.2641 24.3101 12.4517C24.3326 12.6394 24.3015 12.8295 24.2204 13.0002C24.1393 13.1709 24.0115 13.3152 23.8518 13.4162C23.6921 13.5172 23.507 13.5709 23.318 13.5711H23.313Z" fill="#F7931E"/>
<path d="M28.027 32.0579L29.081 34.1999C29.0888 34.2152 29.1001 34.2283 29.114 34.2383C29.1279 34.2482 29.1441 34.2546 29.161 34.2569L31.518 34.5999C31.5386 34.6006 31.5584 34.6076 31.5749 34.62C31.5913 34.6324 31.6036 34.6495 31.6099 34.6691C31.6162 34.6886 31.6164 34.7097 31.6103 34.7294C31.6043 34.749 31.5923 34.7663 31.576 34.7789L29.87 36.4359C29.858 36.448 29.849 36.4627 29.8438 36.4788C29.8386 36.495 29.8373 36.5122 29.84 36.5289L30.24 38.8769C30.2431 38.8963 30.2407 38.9161 30.2333 38.9342C30.2258 38.9523 30.2134 38.9679 30.1976 38.9794C30.1817 38.9909 30.163 38.9978 30.1435 38.9993C30.124 39.0008 30.1044 38.9969 30.087 38.9879L27.979 37.879C27.9636 37.8707 27.9465 37.8664 27.929 37.8664C27.9116 37.8664 27.8944 37.8707 27.879 37.879L25.771 38.9879C25.754 38.9995 25.7338 39.0055 25.7132 39.0051C25.6926 39.0048 25.6726 38.998 25.656 38.9859C25.6393 38.9738 25.6269 38.9568 25.6203 38.9373C25.6136 38.9178 25.6132 38.8967 25.619 38.8769L26.019 36.5289C26.0224 36.5122 26.0214 36.4948 26.0161 36.4785C26.0109 36.4623 26.0015 36.4476 25.989 36.4359L24.29 34.7739C24.2737 34.7613 24.2618 34.744 24.2557 34.7244C24.2496 34.7047 24.2498 34.6836 24.2561 34.6641C24.2625 34.6445 24.2747 34.6274 24.2911 34.615C24.3076 34.6026 24.3274 34.5956 24.348 34.5949L26.706 34.2519C26.7228 34.2495 26.7387 34.243 26.7524 34.2331C26.7662 34.2231 26.7774 34.2101 26.785 34.1949L27.839 32.0579C27.846 32.0386 27.8588 32.022 27.8756 32.0102C27.8924 31.9984 27.9125 31.9921 27.933 31.9921C27.9535 31.9921 27.9736 31.9984 27.9904 32.0102C28.0072 32.022 28.02 32.0386 28.027 32.0579Z" fill="#FCEE21"/>
<path d="M41 34H36V36H41V34Z" fill="#B3B3B3"/>
<path d="M20 34H15V36H20V34Z" fill="#B3B3B3"/>
<path d="M34.79 17.3C34.5461 17.2998 34.3107 17.2103 34.1281 17.0486C33.9455 16.8869 33.8283 16.664 33.7986 16.4219C33.7688 16.1799 33.8286 15.9352 33.9666 15.7341C34.1046 15.533 34.3114 15.3893 34.548 15.33L37.458 14.601C37.7145 14.5387 37.9853 14.5803 38.2112 14.7169C38.4372 14.8534 38.6 15.0737 38.6641 15.3298C38.7283 15.5858 38.6885 15.8569 38.5537 16.0838C38.4188 16.3107 38.1996 16.475 37.944 16.541L35.034 17.269C34.9543 17.2896 34.8723 17.3 34.79 17.3Z" fill="#F7931E"/>
<path d="M21.226 17.2371C21.141 17.2371 21.0563 17.2264 20.974 17.2051L18.074 16.4491C17.9426 16.4204 17.8183 16.3655 17.7086 16.2876C17.5988 16.2098 17.506 16.1106 17.4355 15.996C17.365 15.8815 17.3183 15.7538 17.2983 15.6208C17.2783 15.4878 17.2853 15.3521 17.319 15.2219C17.3527 15.0916 17.4122 14.9695 17.4942 14.8628C17.5761 14.7562 17.6788 14.6671 17.7959 14.601C17.9131 14.5349 18.0424 14.4932 18.1761 14.4782C18.3098 14.4633 18.4451 14.4755 18.574 14.5141L21.474 15.2701C21.7087 15.3319 21.9129 15.477 22.0486 15.6783C22.1842 15.8796 22.242 16.1234 22.2111 16.3641C22.1803 16.6049 22.0629 16.8262 21.8809 16.9868C21.6989 17.1474 21.4647 17.2364 21.222 17.2371H21.226Z" fill="#F7931E"/>
<path d="M60.5 38H58V34.7C58.0001 34.2875 57.8727 33.885 57.6351 33.5477C57.3976 33.2104 57.0615 32.9548 56.673 32.816L43.613 28.152L37.17 19.781C36.9826 19.5387 36.7422 19.3423 36.4674 19.207C36.1925 19.0716 35.8904 19.0008 35.584 19H32V18C32 16.9391 31.5786 15.9217 30.8284 15.1716C30.0783 14.4214 29.0609 14 28 14C26.9391 14 25.9217 14.4214 25.1716 15.1716C24.4214 15.9217 24 16.9391 24 18V19H20.416C20.1097 19.0007 19.8077 19.0714 19.533 19.2068C19.2583 19.3422 19.0181 19.5386 18.831 19.781L12.419 28.115L3.60701 29.858C3.15441 29.95 2.7474 30.1954 2.45465 30.5526C2.1619 30.9099 2.00133 31.3571 2.00001 31.819V41.212C1.99892 41.6614 2.14976 42.098 2.42805 42.4509C2.70633 42.8038 3.09572 43.0523 3.53301 43.156L6.93301 43.973H7.08601C7.27101 45.1004 7.77565 46.1509 8.54001 47H2.00001V49H62V47H48.46C49.2179 46.1576 49.7207 45.1172 49.91 44H60.5C60.8978 44 61.2794 43.842 61.5607 43.5607C61.842 43.2794 62 42.8978 62 42.5V39.5C62 39.1022 61.842 38.7206 61.5607 38.4393C61.2794 38.158 60.8978 38 60.5 38V38ZM56 38H52V36H56V38ZM35.584 21L40.969 28H29V21H35.584ZM26 18C26 17.4696 26.2107 16.9609 26.5858 16.5858C26.9609 16.2107 27.4696 16 28 16C28.5304 16 29.0391 16.2107 29.4142 16.5858C29.7893 16.9609 30 17.4696 30 18V19H26V18ZM20.416 21H27V28H15.031L20.416 21ZM4.00001 35H6.00001V37H4.00001V35ZM9.00001 43C9.00001 42.2089 9.2346 41.4355 9.67413 40.7777C10.1137 40.1199 10.7384 39.6072 11.4693 39.3045C12.2002 39.0017 13.0044 38.9225 13.7804 39.0769C14.5563 39.2312 15.269 39.6122 15.8284 40.1716C16.3878 40.731 16.7688 41.4437 16.9231 42.2196C17.0775 42.9956 16.9983 43.7998 16.6955 44.5307C16.3928 45.2616 15.8801 45.8864 15.2223 46.3259C14.5645 46.7654 13.7911 47 13 47C11.9391 47 10.9217 46.5786 10.1716 45.8284C9.42143 45.0783 9.00001 44.0609 9.00001 43ZM18.91 44H38.09C38.2793 45.1172 38.7822 46.1576 39.54 47H17.46C18.2178 46.1576 18.7207 45.1172 18.91 44ZM40 43C40 42.2089 40.2346 41.4355 40.6741 40.7777C41.1137 40.1199 41.7384 39.6072 42.4693 39.3045C43.2002 39.0017 44.0044 38.9225 44.7804 39.0769C45.5563 39.2312 46.269 39.6122 46.8284 40.1716C47.3878 40.731 47.7688 41.4437 47.9231 42.2196C48.0775 42.9956 47.9983 43.7998 47.6955 44.5307C47.3928 45.2616 46.8801 45.8864 46.2223 46.3259C45.5645 46.7654 44.7911 47 44 47C42.9391 47 41.9217 46.5786 41.1716 45.8284C40.4214 45.0783 40 44.0609 40 43ZM49.91 42C49.675 40.6025 48.9523 39.3335 47.8704 38.4183C46.7884 37.5031 45.4171 37.001 44 37.001C42.5829 37.001 41.2116 37.5031 40.1297 38.4183C39.0477 39.3335 38.325 40.6025 38.09 42H18.91C18.6743 40.6078 17.9545 39.3435 16.8776 38.4301C15.8008 37.5167 14.436 37.0129 13.0239 37.0075C11.6119 37.0021 10.2433 37.4955 9.15951 38.4007C8.07572 39.3058 7.34634 40.5646 7.10001 41.955L4.00001 41.212V39H6.00001C6.53044 39 7.03915 38.7893 7.41422 38.4142C7.78929 38.0391 8.00001 37.5304 8.00001 37V35C8.00001 34.4696 7.78929 33.9609 7.41422 33.5858C7.03915 33.2107 6.53044 33 6.00001 33H4.00001V31.819L13.1 30H42.827L54.027 34H52C51.4696 34 50.9609 34.2107 50.5858 34.5858C50.2107 34.9609 50 35.4696 50 36V38C50 38.5304 50.2107 39.0391 50.5858 39.4142C50.9609 39.7893 51.4696 40 52 40H56V42H49.91ZM60 42H58V40H60V42Z" fill="black"/>
<path d="M13 41C12.6044 41 12.2178 41.1173 11.8889 41.3371C11.56 41.5568 11.3036 41.8692 11.1522 42.2346C11.0009 42.6001 10.9613 43.0022 11.0384 43.3902C11.1156 43.7781 11.3061 44.1345 11.5858 44.4142C11.8655 44.6939 12.2219 44.8844 12.6098 44.9616C12.9978 45.0387 13.3999 44.9991 13.7654 44.8478C14.1308 44.6964 14.4432 44.44 14.6629 44.1111C14.8827 43.7822 15 43.3956 15 43C15 42.4696 14.7893 41.9609 14.4142 41.5858C14.0391 41.2107 13.5304 41 13 41ZM13 44V43V44Z" fill="black"/>
<path d="M44 41C43.6044 41 43.2178 41.1173 42.8889 41.3371C42.56 41.5568 42.3036 41.8692 42.1522 42.2346C42.0009 42.6001 41.9613 43.0022 42.0384 43.3902C42.1156 43.7781 42.3061 44.1345 42.5858 44.4142C42.8655 44.6939 43.2219 44.8844 43.6098 44.9616C43.9978 45.0387 44.3999 44.9991 44.7654 44.8478C45.1308 44.6964 45.4432 44.44 45.6629 44.1111C45.8827 43.7822 46 43.3956 46 43C46 42.4696 45.7893 41.9609 45.4142 41.5858C45.0391 41.2107 44.5304 41 44 41ZM44 44V43V44Z" fill="black"/>
<path d="M27 8V11C27 11.2652 27.1054 11.5196 27.2929 11.7071C27.4804 11.8946 27.7348 12 28 12C28.2652 12 28.5196 11.8946 28.7071 11.7071C28.8946 11.5196 29 11.2652 29 11V8C29 7.73478 28.8946 7.48043 28.7071 7.29289C28.5196 7.10536 28.2652 7 28 7C27.7348 7 27.4804 7.10536 27.2929 7.29289C27.1054 7.48043 27 7.73478 27 8Z" fill="black"/>
<path d="M34.944 9.46902C34.8422 9.38608 34.725 9.32401 34.5992 9.28636C34.4733 9.24871 34.3413 9.23621 34.2107 9.24958C34.08 9.26295 33.9533 9.30193 33.8377 9.36429C33.7221 9.42665 33.6199 9.51117 33.537 9.61302L31.643 11.94C31.4759 12.1465 31.3977 12.4109 31.4255 12.675C31.4534 12.9392 31.585 13.1814 31.7915 13.3485C31.998 13.5156 32.2624 13.5938 32.5265 13.566C32.7906 13.5381 33.0329 13.4065 33.2 13.2L35.093 10.873C35.259 10.6669 35.3365 10.4034 35.3086 10.1402C35.2807 9.87706 35.1496 9.6357 34.944 9.46902V9.46902Z" fill="black"/>
<path d="M23.313 13.5709C23.502 13.5708 23.6871 13.5171 23.8468 13.4161C24.0065 13.315 24.1343 13.1708 24.2154 13.0001C24.2965 12.8294 24.3276 12.6392 24.3051 12.4516C24.2825 12.264 24.2073 12.0866 24.088 11.9399L22.2 9.61294C22.1171 9.51104 22.015 9.42645 21.8995 9.36401C21.7839 9.30158 21.6572 9.26251 21.5265 9.24904C21.3959 9.23558 21.2639 9.24798 21.138 9.28554C21.0121 9.3231 20.8949 9.38508 20.793 9.46794C20.6911 9.55081 20.6065 9.65293 20.5441 9.76849C20.4816 9.88404 20.4426 10.0108 20.4291 10.1414C20.4019 10.4053 20.4806 10.6691 20.648 10.8749L22.537 13.1999C22.6306 13.3156 22.7488 13.409 22.8831 13.4731C23.0173 13.5373 23.1642 13.5707 23.313 13.5709Z" fill="black"/>
<path d="M31.662 33.6001L29.77 33.3301L28.924 31.6161C28.8328 31.4311 28.6916 31.2754 28.5165 31.1665C28.3413 31.0576 28.1392 30.9999 27.933 30.9999C27.7268 30.9999 27.5247 31.0576 27.3495 31.1665C27.1744 31.2754 27.0332 31.4311 26.942 31.6161L26.1 33.3301L24.2 33.6001C23.9952 33.6283 23.8024 33.7136 23.6439 33.8463C23.4854 33.979 23.3674 34.1538 23.3037 34.3504C23.2399 34.5471 23.2328 34.7578 23.2833 34.9583C23.3337 35.1588 23.4397 35.341 23.589 35.4841L24.958 36.8191L24.635 38.7041C24.6072 38.8632 24.6147 39.0265 24.6568 39.1824C24.6989 39.3384 24.7747 39.4832 24.8788 39.6067C24.9829 39.7302 25.1127 39.8295 25.2593 39.8974C25.4058 39.9654 25.5655 40.0004 25.727 40.0001C25.9064 40.0003 26.083 39.956 26.241 39.8711L27.933 38.9821L29.621 39.8691C29.8032 39.9682 30.0097 40.0137 30.2167 40.0005C30.4237 39.9873 30.6227 39.9158 30.7908 39.7943C30.9589 39.6728 31.0893 39.5063 31.1668 39.3139C31.2443 39.1215 31.2659 38.9112 31.229 38.7071L30.905 36.8231L32.275 35.4881C32.4224 35.3441 32.5266 35.1617 32.5759 34.9616C32.6251 34.7615 32.6175 34.5516 32.5537 34.3557C32.4899 34.1597 32.3726 33.9855 32.2151 33.8526C32.0575 33.7198 31.8659 33.6337 31.662 33.6041V33.6001ZM28.951 37.2541L28.435 36.9821L27.876 36.7481L26.916 37.2531L27.07 36.0831L26.287 35.3181L27.447 35.1061L27.933 34.1221L28.492 35.1601L29.58 35.3181L28.767 36.1831L28.951 37.2541Z" fill="black"/>
<path d="M41 34H36V36H41V34Z" fill="black"/>
<path d="M20 34H15V36H20V34Z" fill="black"/>
<path d="M34.79 17.3C34.8723 17.3 34.9543 17.2896 35.034 17.269L37.944 16.541C38.1996 16.475 38.4188 16.3107 38.5537 16.0838C38.6885 15.8569 38.7283 15.5858 38.6641 15.3298C38.6 15.0737 38.4372 14.8534 38.2112 14.7169C37.9853 14.5803 37.7145 14.5387 37.458 14.601L34.548 15.33C34.3114 15.3893 34.1046 15.533 33.9666 15.7341C33.8286 15.9352 33.7688 16.1799 33.7986 16.4219C33.8283 16.664 33.9455 16.8869 34.1281 17.0486C34.3107 17.2103 34.5461 17.2998 34.79 17.3V17.3Z" fill="black"/>
<path d="M18.574 14.5141C18.4451 14.4755 18.3098 14.4633 18.1761 14.4782C18.0424 14.4932 17.9131 14.5349 17.796 14.601C17.6788 14.6671 17.5762 14.7562 17.4942 14.8628C17.4123 14.9695 17.3527 15.0916 17.319 15.2219C17.2854 15.3521 17.2783 15.4878 17.2984 15.6208C17.3184 15.7538 17.365 15.8815 17.4355 15.996C17.506 16.1106 17.5989 16.2098 17.7086 16.2876C17.8183 16.3655 17.9426 16.4204 18.074 16.4491L20.974 17.2051C21.2267 17.2602 21.4909 17.2153 21.7112 17.0798C21.9315 16.9442 22.0907 16.7286 22.1554 16.4782C22.2201 16.2278 22.1853 15.9621 22.0582 15.7368C21.9312 15.5115 21.7218 15.3442 21.474 15.2701L18.574 14.5141Z" fill="black"/>
</svg>
